<mxfile host="app.diagrams.net" modified="2023-09-19T02:49:15.527Z" agent="Mozilla/5.0 (Macintosh; Intel Mac OS X 10_15_7) AppleWebKit/537.36 (KHTML, like Gecko) Chrome/116.0.0.0 Safari/537.36" etag="OSF-ZURCL211DL-SJ2B7" version="21.7.2" type="github">
  <diagram id="prtHgNgQTEPvFCAcTncT" name="Page-1">
    <mxGraphModel dx="933" dy="552" grid="1" gridSize="10" guides="1" tooltips="1" connect="1" arrows="1" fold="1" page="1" pageScale="1" pageWidth="827" pageHeight="1169" math="0" shadow="0">
      <root>
        <mxCell id="0" />
        <mxCell id="1" parent="0" />
        <mxCell id="Mk3c4lTgCmmT1804mff--29" value="产教融合云登录流程" style="swimlane;childLayout=stackLayout;resizeParent=1;resizeParentMax=0;startSize=20;html=1;" vertex="1" parent="1">
          <mxGeometry x="80.00000000000045" y="80" width="640" height="480" as="geometry" />
        </mxCell>
        <mxCell id="Mk3c4lTgCmmT1804mff--30" value="路由拦截器" style="swimlane;startSize=20;html=1;" vertex="1" parent="Mk3c4lTgCmmT1804mff--29">
          <mxGeometry y="20" width="320" height="460" as="geometry" />
        </mxCell>
        <mxCell id="Mk3c4lTgCmmT1804mff--40" value="" style="edgeStyle=orthogonalEdgeStyle;rounded=0;orthogonalLoop=1;jettySize=auto;html=1;" edge="1" parent="Mk3c4lTgCmmT1804mff--30" source="Mk3c4lTgCmmT1804mff--35" target="Mk3c4lTgCmmT1804mff--39">
          <mxGeometry relative="1" as="geometry" />
        </mxCell>
        <mxCell id="Mk3c4lTgCmmT1804mff--35" value="访问页面" style="strokeWidth=2;html=1;shape=mxgraph.flowchart.terminator;whiteSpace=wrap;" vertex="1" parent="Mk3c4lTgCmmT1804mff--30">
          <mxGeometry x="29.999999999999545" y="60" width="100" height="60" as="geometry" />
        </mxCell>
        <mxCell id="Mk3c4lTgCmmT1804mff--42" value="" style="edgeStyle=orthogonalEdgeStyle;rounded=0;orthogonalLoop=1;jettySize=auto;html=1;" edge="1" parent="Mk3c4lTgCmmT1804mff--30" source="Mk3c4lTgCmmT1804mff--39" target="Mk3c4lTgCmmT1804mff--41">
          <mxGeometry relative="1" as="geometry" />
        </mxCell>
        <mxCell id="Mk3c4lTgCmmT1804mff--43" value="未登录" style="edgeLabel;html=1;align=center;verticalAlign=middle;resizable=0;points=[];" vertex="1" connectable="0" parent="Mk3c4lTgCmmT1804mff--42">
          <mxGeometry x="-0.1588" relative="1" as="geometry">
            <mxPoint as="offset" />
          </mxGeometry>
        </mxCell>
        <mxCell id="Mk3c4lTgCmmT1804mff--45" value="" style="edgeStyle=orthogonalEdgeStyle;rounded=0;orthogonalLoop=1;jettySize=auto;html=1;exitX=0.5;exitY=1;exitDx=0;exitDy=0;" edge="1" parent="Mk3c4lTgCmmT1804mff--30">
          <mxGeometry relative="1" as="geometry">
            <mxPoint x="79.82999999999954" y="270" as="sourcePoint" />
            <mxPoint x="79.82999999999954" y="359.9999999999999" as="targetPoint" />
            <Array as="points">
              <mxPoint x="79.83" y="290" />
              <mxPoint x="79.83" y="290" />
            </Array>
          </mxGeometry>
        </mxCell>
        <mxCell id="Mk3c4lTgCmmT1804mff--46" value="已登录" style="edgeLabel;html=1;align=center;verticalAlign=middle;resizable=0;points=[];" vertex="1" connectable="0" parent="Mk3c4lTgCmmT1804mff--45">
          <mxGeometry x="-0.1699" y="1" relative="1" as="geometry">
            <mxPoint x="-1" y="3" as="offset" />
          </mxGeometry>
        </mxCell>
        <mxCell id="Mk3c4lTgCmmT1804mff--39" value="是否登录&lt;br&gt;（有token）" style="rhombus;whiteSpace=wrap;html=1;strokeWidth=2;" vertex="1" parent="Mk3c4lTgCmmT1804mff--30">
          <mxGeometry x="39.999999999999545" y="190" width="80" height="80" as="geometry" />
        </mxCell>
        <mxCell id="Mk3c4lTgCmmT1804mff--41" value="" style="whiteSpace=wrap;html=1;strokeWidth=2;" vertex="1" parent="Mk3c4lTgCmmT1804mff--30">
          <mxGeometry x="180" y="200" width="110" height="60" as="geometry" />
        </mxCell>
        <mxCell id="Mk3c4lTgCmmT1804mff--44" value="" style="whiteSpace=wrap;html=1;strokeWidth=2;" vertex="1" parent="Mk3c4lTgCmmT1804mff--30">
          <mxGeometry x="30" y="360" width="100" height="60" as="geometry" />
        </mxCell>
        <mxCell id="Mk3c4lTgCmmT1804mff--31" value="用户中心" style="swimlane;startSize=20;html=1;" vertex="1" parent="Mk3c4lTgCmmT1804mff--29">
          <mxGeometry x="320" y="20" width="160" height="460" as="geometry" />
        </mxCell>
        <mxCell id="Mk3c4lTgCmmT1804mff--32" value="目标页面" style="swimlane;startSize=20;html=1;" vertex="1" parent="Mk3c4lTgCmmT1804mff--29">
          <mxGeometry x="480" y="20" width="160" height="460" as="geometry" />
        </mxCell>
      </root>
    </mxGraphModel>
  </diagram>
</mxfile>
